# xmcd CD database file generated by OrangeCD 5.2
#
# Track frame offsets:
#	150
#	15340
#	32663
#	49950
#	63995
#	81818
#	98770
#	117045
#	133313
#	147550
#	166275
#	183025
#
# Disc length: 2613 seconds
#
# Revision: 3
# Processed by: cddbd v1.5.1PL0 Copyright (c) Steve Scherf et al.
# Submitted via: OrangeCD 5.2
#
DISCID=9a0a330c
DTITLE=Somebody's Darling - Somebody's Darling
DYEAR=1993
DGENRE=Country
TTITLE0=That's Why I Wear Black
TTITLE1=Only Time
TTITLE2=Someone I Don't Want To Be
TTITLE3=You'll Remember Me
TTITLE4=A Catcher In The Rye
TTITLE5=Breathe
TTITLE6=Shame
TTITLE7=Born With A Broken Wing
TTITLE8=Enough Will Be Enough
TTITLE9=Like Two Fires
TTITLE10=Little Angel
TTITLE11=Little John Of God
EXTD=
EXTT0=
EXTT1=
EXTT2=
EXTT3=
EXTT4=
EXTT5=
EXTT6=
EXTT7=
EXTT8=
EXTT9=
EXTT10=
EXTT11=
PLAYORDER=
